HIERARCHY
ROOT Hips
{
   OFFSET 0.00000 0.00000 0.00000
   CHANNELS 6 Xposition Yposition Zposition Zrotation Xrotation Yrotation
   JOINT RightUpLeg
   {
      OFFSET -8.945800 -8.667070 0.101652
      CHANNELS 3 Zrotation Xrotation Yrotation
      JOINT RightLeg
      {
         OFFSET 0.000000 -44.422697 1.372700
         CHANNELS 3 Zrotation Xrotation Yrotation
         JOINT RightFoot
         {
            OFFSET 0.253549 -42.092399 -1.460590
            CHANNELS 3 Zrotation Xrotation Yrotation
            JOINT RightToes
            {
               OFFSET 0.040000 -4.415090 8.499099
               CHANNELS 3 Zrotation Xrotation Yrotation
               End Site
               {
                  OFFSET -0.080000 -0.137448 9.779790
               }
            }
         }
      }
   }
   JOINT Spine
   {
      OFFSET 0.000000 11.890501 0.000000
      CHANNELS 3 Zrotation Xrotation Yrotation
      JOINT Spine1
      {
         OFFSET 0.000000 25.657401 0.127663
         CHANNELS 3 Zrotation Xrotation Yrotation
         JOINT HEad
         {
            OFFSET 0.000000 8.734161 0.011341
            CHANNELS 3 Zrotation Xrotation Yrotation
            End Site
            {
               OFFSET -0.290000 12.774200 2.513950
            }
         }
         JOINT LeftShoulder1
         {
            OFFSET 8.990000 -0.362252 -0.220000
            CHANNELS 3 Zrotation Xrotation Yrotation
            JOINT LeftArm
            {
               OFFSET 10.282700 -0.003380 0.322123
               CHANNELS 3 Zrotation Xrotation Yrotation
               JOINT LeftForeArm
               {
                  OFFSET 32.766900 0.099144 -1.424340
                  CHANNELS 3 Zrotation Xrotation Yrotation
                  JOINT LeftHand
                  {
                     OFFSET 27.564301 0.085362 1.022160
                     CHANNELS 3 Zrotation Xrotation Yrotation
                     End Site
                     {
                        OFFSET 16.744301 -0.600000 1.502910
                     }
                  }
               }
            }
         }
         JOINT RightShoulder
         {
            OFFSET -8.990000 -0.362252 -0.220000
            CHANNELS 3 Zrotation Xrotation Yrotation
            JOINT RightArm
            {
               OFFSET -10.282700 -0.003380 0.322123
               CHANNELS 3 Zrotation Xrotation Yrotation
               JOINT RightForeArm
               {
                  OFFSET -32.897098 0.099144 -1.424340
                  CHANNELS 3 Zrotation Xrotation Yrotation
                  JOINT RightHand
                  {
                     OFFSET -27.492101 0.085362 1.022160
                     CHANNELS 3 Zrotation Xrotation Yrotation
                     End Site
                     {
                        OFFSET -16.631201 -0.600000 1.502910
                     }
                  }
               }
            }
         }
      }
   }
   JOINT LeftUpLeg
   {
      OFFSET 8.945800 -8.667070 0.101652
      CHANNELS 3 Zrotation Xrotation Yrotation
      JOINT LeftLeg
      {
         OFFSET 0.000000 -44.422697 1.372700
         CHANNELS 3 Zrotation Xrotation Yrotation
         JOINT LeftFoot
         {
            OFFSET -0.253549 -42.092399 -1.460590
            CHANNELS 3 Zrotation Xrotation Yrotation
            JOINT LeftToes
            {
               OFFSET -0.040000 -4.415090 8.499099
               CHANNELS 3 Zrotation Xrotation Yrotation
               End Site
               {
                  OFFSET 0.080000 -0.047448 9.779790
               }
            }
         }
      }
   }
}
MOTION
Frames: 12
Frame Time: 0.016667
-223.222615 103.310574 394.430231 40.316056 20.386795 65.518303 -23.527442 9.541190 5.378200 11.620398 19.701679 -16.155793 -32.804056 19.630353 33.820757 8.181090 -7.704033 -34.789070 -44.480671 30.838782 110.705680 25.929712 9.833195 -82.396984 -14.464116 14.985669 -5.187195 17.676492 86.876830 -30.636714 -135.517251 44.049266 -206.188986 -60.030765 43.587569 -2.968375 -43.261988 -11.413971 -50.950749 -62.058088 61.667060 113.379358 111.323102 136.923395 174.190383 59.246591 218.227659 126.541863 -39.761246 -36.873138 17.650855 14.598950 -1.741527 75.435792 12.151434 40.816804 -5.999493 -5.117534 37.467850 33.832468 8.148803 -19.952214 -15.257980
-223.282200 102.545250 394.307741 34.543600 17.074286 71.516711 -16.437156 7.077427 2.416902 9.854510 20.208600 -17.365995 -30.987619 18.361828 32.632929 8.075481 -8.585069 -35.981788 -38.428751 31.589126 114.835875 24.921443 4.978073 -90.510689 -16.327337 16.411442 -3.841690 22.298266 90.512779 -32.666473 -130.314736 50.500950 -208.042139 -64.379239 43.567267 2.554146 -43.786563 -11.585337 -49.013243 -61.443979 64.793046 113.097394 108.464975 136.843222 176.765910 65.658212 213.781342 128.215956 -44.109324 -41.640808 12.376034 18.376576 -5.244076 64.123442 6.175866 38.860675 1.436977 -7.947063 35.334232 31.037824 7.933560 -18.341880 -15.111435
-223.147389 101.661099 394.038271 29.857117 12.904297 77.920792 -10.516154 5.676125 -0.372124 9.045167 20.876113 -18.589367 -27.355548 17.400826 32.165161 7.785254 -9.452211 -36.340800 -34.368112 32.987375 120.253636 21.485166 2.620458 -97.127783 -20.441774 19.205013 -1.889020 29.293838 93.774078 -33.300533 -124.087899 54.476899 -209.233392 -67.384106 43.488163 8.143222 -42.814170 -12.504402 -44.033683 -61.592884 69.709191 113.556246 104.944258 136.715484 179.929531 71.129091 209.622221 126.714858 -44.795522 -45.980441 5.414733 21.543349 -8.834139 52.654697 1.829051 36.710884 7.745692 -10.637650 32.128865 29.834912 7.370380 -16.723305 -14.150454
-222.884499 100.598429 393.738855 26.951331 9.623042 82.871799 -6.721086 4.599040 -2.024417 8.253735 22.341059 -19.792295 -22.663818 16.624336 32.360815 7.237748 -10.472265 -35.855023 -28.716093 34.522266 123.682568 17.874470 0.724449 -104.500344 -22.050161 22.303720 -0.385905 33.442993 96.673172 -34.623732 -119.879997 57.686405 -209.397904 -69.154299 42.645714 13.116690 -42.219896 -13.192506 -40.471825 -62.798118 75.734094 115.743484 99.940387 135.565731 183.745517 75.879638 205.042129 126.329471 -47.995241 -50.199459 0.724993 23.410817 -10.313047 41.348883 -3.543648 33.981496 14.344353 -12.957926 28.502251 29.128950 6.740122 -14.959462 -13.034281
-222.400452 99.326046 393.400492 25.397869 7.061671 87.246992 -4.655422 4.021872 -1.614337 7.512978 25.087136 -20.451456 -16.998778 16.011408 33.783359 6.406639 -11.682949 -34.165535 -21.376272 36.449219 126.459709 14.290363 0.224865 -111.547624 -21.066072 24.812983 0.588712 36.533528 99.684603 -36.276552 -115.674035 60.546471 -207.135855 -70.622715 41.025197 17.325997 -42.106914 -13.660164 -38.606336 -65.252205 83.099585 120.220837 94.236284 134.540383 189.209777 79.195326 201.228916 125.186330 -51.074693 -55.705602 -2.471088 24.155307 -11.105563 29.373515 -7.736329 31.173864 20.823526 -14.896661 24.653107 28.929075 6.063068 -13.224726 -11.875699
-221.741482 97.855805 392.958673 25.439950 4.845285 91.356068 -2.359144 4.373053 -2.263782 8.036880 26.581740 -22.439010 -13.667320 15.311870 33.360693 5.750087 -12.692273 -32.813158 -15.187964 37.181542 128.903059 11.685585 0.946057 -118.597929 -18.706245 26.763236 1.254784 39.305075 102.344722 -37.644878 -113.692132 63.375024 -206.034569 -72.411118 39.140706 20.765638 -42.765279 -13.726549 -38.364660 -69.405384 92.546843 127.688324 85.784526 134.055590 195.180620 83.382615 196.827761 129.830749 -55.194704 -60.265710 -3.037432 25.770329 -9.519072 16.226158 -10.742382 26.426222 25.841493 -27.336830 19.772590 28.871688 5.399796 -12.171278 -11.500130
-220.879933 96.227416 392.465624 24.761739 3.613635 95.089900 -1.085392 4.147700 -2.852700 9.133092 27.644108 -24.890832 -11.425618 13.583180 32.394368 4.921055 -14.282760 -31.292460 -9.628799 38.206015 131.168811 7.575327 2.213514 -125.413311 -14.169274 28.212988 1.369667 40.947268 105.977543 -38.909887 -112.783594 66.146045 -204.054825 -73.983339 36.455298 24.032608 -43.904319 -13.541642 -39.699003 -75.832558 101.137145 136.687235 77.436375 134.134233 203.854017 85.072383 195.713962 131.714188 -56.615243 -63.787936 -6.285098 25.986698 -10.270324 3.507944 -13.788466 22.157953 31.162926 -22.240658 17.206988 29.061908 4.932886 -10.957140 -11.666603
-219.916607 94.448050 391.870188 25.230895 3.116609 97.401236 -0.414222 4.845943 -3.939967 10.021366 28.393165 -28.235672 -10.418969 12.514495 30.259405 4.183606 -16.069859 -30.163898 -5.440521 38.954157 133.581589 5.390551 4.098951 -131.363075 -11.776412 29.307836 1.890562 44.035001 108.908630 -40.664672 -111.704021 68.532253 -202.101486 -75.188321 34.250001 27.645590 -44.640409 -13.578065 -40.247262 -83.241134 111.019753 146.926617 69.781679 135.984914 214.783836 86.295888 195.144515 135.046405 -58.548689 -66.557154 -8.578706 27.447545 -9.703582 -7.710655 -15.179441 18.303707 36.367834 -32.681195 14.680360 30.788068 4.403993 -10.207644 -11.830611
-218.899705 92.724103 391.168131 26.389944 2.377061 99.207985 0.323485 5.995814 -4.338736 11.228213 29.500574 -30.818380 -9.429914 12.334750 28.359639 3.396423 -18.174891 -28.969277 -1.713443 39.816287 135.979504 3.836158 5.624658 -136.788731 -10.607053 30.007118 2.597438 47.508781 110.965145 -42.935652 -111.124213 70.892535 -200.569666 -75.599409 32.157279 31.457693 -44.792705 -13.937506 -40.056447 -91.334485 122.282939 157.725324 63.160528 140.106646 227.936281 87.256213 195.190387 139.631606 -60.081185 -69.085116 -10.368484 28.022099 -9.452353 -19.259740 -16.748237 15.213372 41.308544 -27.315082 13.386915 31.431281 3.997642 -9.716666 -12.658757
-217.849423 90.925549 390.345606 28.313759 1.972863 100.746779 0.495869 8.274827 -4.242111 12.945281 30.930819 -33.011240 -8.168011 12.158668 26.790027 2.511524 -21.005738 -27.860060 1.640578 41.119709 138.011185 3.132324 6.331427 -142.210549 -10.552092 30.853433 3.492370 51.613598 112.375900 -45.868323 -110.907867 73.504269 -199.580491 -75.409195 30.124321 35.453248 -44.358148 -14.672534 -39.432905 -99.619634 135.584528 168.416154 58.353250 146.335929 243.394665 88.042662 195.944262 144.539562 -61.567216 -70.922171 -12.320439 29.286547 -8.111755 -30.492819 -17.671074 12.030875 47.044905 -30.397839 11.550364 31.882565 3.540804 -9.822679 -13.770241
-216.807610 89.125403 389.415697 31.323575 2.031350 101.638337 -0.504210 12.514793 -3.745852 14.997343 31.852772 -33.588695 -6.677619 11.712844 25.650166 1.481207 -24.480723 -26.535828 4.515878 42.454267 139.379026 3.676830 5.995999 -148.003738 -11.138988 31.889979 4.490940 55.826879 113.379842 -49.573660 -111.026569 76.369650 -199.832675 -76.136856 28.638186 38.623531 -44.647195 -15.023585 -39.595027 -106.922636 151.507256 178.282909 56.500462 154.819652 261.259107 88.566175 196.675338 149.791922 -61.978106 -72.286180 -15.996110 30.015919 -5.994025 -41.756187 -18.493195 9.571317 53.308998 -29.666752 10.506112 32.265185 3.163531 -10.054295 -15.276714
-215.678231 87.336768 388.331789 34.566259 1.806531 101.853331 -2.409980 18.181310 -2.731577 17.634367 31.809195 -32.226892 -4.921088 10.710133 25.479937 0.101515 -28.718852 -24.606621 5.523222 45.482216 139.765150 3.761376 4.855776 -154.520681 -12.381873 34.057437 5.584431 61.536774 112.351209 -53.185809 -111.955400 79.833642 -203.062125 -76.084701 27.416880 41.964467 -44.174750 -15.771289 -38.904822 -112.301321 169.685887 186.686200 57.201212 164.630044 280.327438 89.144596 197.475467 154.773234 -59.330903 -72.386891 -24.277742 31.072436 -3.735084 -52.699322 -19.221442 7.159327 60.834453 -30.804577 10.140212 33.065646 2.770443 -10.474233 -16.690860
